<?xml version="1.0" encoding="UTF-8"?>
<svg id="Layer_1" data-name="Layer 1" xmlns="http://www.w3.org/2000/svg" viewBox="0 0 150 150">
  <defs>
    <style>
      .cls-1 {
        fill: #faf8f1;
      }
    </style>
  </defs>
  <g>
    <path d="M75,111.28c-20,0-36.28-16.27-36.28-36.28s16.27-36.28,36.28-36.28,36.28,16.27,36.28,36.28-16.27,36.28-36.28,36.28Z"/>
    <path d="M75,39.22c19.73,0,35.78,16.05,35.78,35.78s-16.05,35.78-35.78,35.78-35.78-16.05-35.78-35.78,16.05-35.78,35.78-35.78M75,38.22c-20.31,0-36.78,16.47-36.78,36.78s16.47,36.78,36.78,36.78,36.78-16.47,36.78-36.78-16.47-36.78-36.78-36.78h0Z"/>
  </g>
  <circle class="cls-1" cx="78.12" cy="75" r="30.55"/>
</svg>